# xmcd
#
# Track frame offsets: 
#        182
#        16795
#        29307
#        43432
#        60420
#        68882
#        77132
#        88682
#        99845
#        104332
#        115607
#        128457
#        133070
#        148895
#        156832
#        169682
#        178170
#        190282
#        201295
#        217807
#
# Disc length: 3119 seconds
#
# Revision: 6
# Processed by: cddbd v1.5.2PL0 Copyright (c) Steve Scherf et al.
# Submitted via: ExactAudioCopy v0.99pb4
#
DISCID=130c2d14
DTITLE=Billie Holiday - The Gold Collection [CD2]
DYEAR=2006
DGENRE=Jazz
TTITLE0=Fine And Mellow
TTITLE1=Keeps On A Rainin'
TTITLE2=He's Funny That Way
TTITLE3=I Cover The Waterfront
TTITLE4=Lover Come Back To Me
TTITLE5=Them There Eyes
TTITLE6=Lover Man
TTITLE7=I Got It Bad And That Ain't Good
TTITLE8=Just Friends
TTITLE9=Everything Happens To Me
TTITLE10=Prelude To A Kiss
TTITLE11=I Must Have That Man
TTITLE12=Willow Weep For Me
TTITLE13=I Only Have Eyes For You
TTITLE14=My Man
TTITLE15=Please Don't Talk About Me
TTITLE16=Don't Explain
TTITLE17=Porgy
TTITLE18=Ain't Nobody's Business
TTITLE19=Billie's Blues
EXTD=
EXTT0=
EXTT1=
EXTT2=
EXTT3=
EXTT4=
EXTT5=
EXTT6=
EXTT7=
EXTT8=
EXTT9=
EXTT10=
EXTT11=
EXTT12=
EXTT13=
EXTT14=
EXTT15=
EXTT16=
EXTT17=
EXTT18=
EXTT19=
PLAYORDER=
